<svg xmlns="http://www.w3.org/2000/svg" width="1100" height="620" viewBox="0 0 1100 620" role="img" aria-labelledby="title desc">
  <title id="title">Nightfall GitHub telemetry for duartess7</title>
  <desc id="desc">Custom live GitHub statistics, languages, streak and contribution activity.</desc>
  <defs>
    <linearGradient id="bg" x1="0" y1="0" x2="1" y2="1"><stop stop-color="#07050a"/><stop offset="1" stop-color="#10091a"/></linearGradient>
    <linearGradient id="beam"><stop stop-color="#8b5cf6" stop-opacity="0"/><stop offset=".5" stop-color="#b794f4"/><stop offset="1" stop-color="#8b5cf6" stop-opacity="0"/></linearGradient>
    <filter id="glow"><feGaussianBlur stdDeviation="4" result="b"/><feMerge><feMergeNode in="b"/><feMergeNode in="SourceGraphic"/></feMerge></filter>
    <pattern id="grid" width="28" height="28" patternUnits="userSpaceOnUse"><path d="M28 0H0V28" fill="none" stroke="#8b5cf6" stroke-opacity=".055"/></pattern>
    <style>
      text { font-family: Consolas, 'Courier New', monospace; }
      .kicker { fill:#8b5cf6; font-size:12px; letter-spacing:3px; }
      .title { fill:#eee8f7; font-size:30px; font-weight:700; letter-spacing:4px; }
      .label { fill:#887a99; font-size:11px; letter-spacing:1.4px; }
      .value { fill:#d8c5f4; font-size:33px; font-weight:700; }
      .detail,.pct { fill:#776b85; font-size:11px; }
      .section { fill:#aa88d4; font-size:12px; letter-spacing:2px; }
      .lang { fill:#ded5e8; font-size:13px; }
      .event { fill:#a98bce; font-size:11px; letter-spacing:1px; }
      .scan { animation:scan 5s linear infinite; }
      .blink { animation:blink 1.6s step-end infinite; }
      @keyframes scan { from { transform:translateX(-500px) } to { transform:translateX(1100px) } }
      @keyframes blink { 50% { opacity:.25 } }
    </style>
  </defs>
  <rect x="1" y="1" width="1098" height="618" rx="14" fill="url(#bg)" stroke="#342047" stroke-width="2"/>
  <rect x="1" y="1" width="1098" height="618" rx="14" fill="url(#grid)"/>
  <path d="M31 1H1v30 M1069 1h30v30 M1099 589v30h-30 M31 619H1v-30" stroke="#a76ff0" stroke-width="2" fill="none"/>
  <g transform="translate(54 42)">
    <circle cx="6" cy="5" r="4" fill="#b794f4" filter="url(#glow)" class="blink"/>
    <text x="22" y="9" class="kicker">LIVE / DUARTESS7</text>
    <text y="49" class="title">NIGHTFALL PROTOCOL</text>
    <text x="992" y="10" text-anchor="end" class="detail">UPDATED 2026-08-28 14:04 UTC</text>
    <text x="992" y="48" text-anchor="end" class="kicker">ACCOUNT AGE // 3Y</text>
  </g>
  <rect y="107" width="480" height="1" fill="url(#beam)" class="scan"/>
  <g transform="translate(54 128)">
      <rect width="238" height="116" rx="8" fill="#0d0a13" stroke="#2d1b43"/>
      <path d="M0 9V0h9 M229 0h9v9 M238 107v9h-9 M9 116H0v-9" stroke="#8b5cf6" fill="none"/>
      <text x="18" y="29" class="label">CONTRIBUTIONS // 1Y</text>
      <text x="18" y="72" class="value">SYNC</text>
      <text x="18" y="97" class="detail">0 in the last 28 days</text>
    </g><g transform="translate(306 128)">
      <rect width="238" height="116" rx="8" fill="#0d0a13" stroke="#2d1b43"/>
      <path d="M0 9V0h9 M229 0h9v9 M238 107v9h-9 M9 116H0v-9" stroke="#8b5cf6" fill="none"/>
      <text x="18" y="29" class="label">PUBLIC REPOSITORIES</text>
      <text x="18" y="72" class="value">1</text>
      <text x="18" y="97" class="detail">0 forks across the archive</text>
    </g><g transform="translate(558 128)">
      <rect width="238" height="116" rx="8" fill="#0d0a13" stroke="#2d1b43"/>
      <path d="M0 9V0h9 M229 0h9v9 M238 107v9h-9 M9 116H0v-9" stroke="#8b5cf6" fill="none"/>
      <text x="18" y="29" class="label">STARS COLLECTED</text>
      <text x="18" y="72" class="value">0</text>
      <text x="18" y="97" class="detail">0 watchers online</text>
    </g><g transform="translate(810 128)">
      <rect width="238" height="116" rx="8" fill="#0d0a13" stroke="#2d1b43"/>
      <path d="M0 9V0h9 M229 0h9v9 M238 107v9h-9 M9 116H0v-9" stroke="#8b5cf6" fill="none"/>
      <text x="18" y="29" class="label">CURRENT STREAK</text>
      <text x="18" y="72" class="value">SYNC</text>
      <text x="18" y="97" class="detail">longest signal: 0 days</text>
    </g>
  <path d="M54 280H1046" stroke="#291b39"/>
  <text x="54" y="306" class="section">RECENT TRANSMISSIONS</text>
  <text x="626" y="306" class="section">CONTRIBUTION SIGNAL // 52 WEEKS</text>
  <circle cx="68" cy="335" r="3" fill="#8b5cf6"/><text x="82" y="340" class="event">PUSH</text><text x="205" y="340" class="lang">duartess7</text><text x="574" y="340" text-anchor="end" class="pct">08-24 07:11 UTC</text><circle cx="68" cy="374" r="3" fill="#8b5cf6"/><text x="82" y="379" class="event">PUSH</text><text x="205" y="379" class="lang">duartess7</text><text x="574" y="379" text-anchor="end" class="pct">08-24 06:34 UTC</text><circle cx="68" cy="413" r="3" fill="#8b5cf6"/><text x="82" y="418" class="event">PUSH</text><text x="205" y="418" class="lang">duartess7</text><text x="574" y="418" text-anchor="end" class="pct">08-24 06:17 UTC</text><circle cx="68" cy="452" r="3" fill="#8b5cf6"/><text x="82" y="457" class="event">PUSH</text><text x="205" y="457" class="lang">duartess7</text><text x="574" y="457" text-anchor="end" class="pct">08-23 08:54 UTC</text><circle cx="68" cy="491" r="3" fill="#8b5cf6"/><text x="82" y="496" class="event">PUSH</text><text x="205" y="496" class="lang">duartess7</text><text x="574" y="496" text-anchor="end" class="pct">08-23 08:48 UTC</text>
  <g><rect x="651" y="354" width="6" height="10" rx="2" fill="#15101d"/><rect x="651" y="368" width="6" height="10" rx="2" fill="#15101d"/><rect x="651" y="382" width="6" height="10" rx="2" fill="#15101d"/><rect x="651" y="396" width="6" height="10" rx="2" fill="#15101d"/><rect x="651" y="410" width="6" height="10" rx="2" fill="#15101d"/><rect x="651" y="424" width="6" height="10" rx="2" fill="#15101d"/><rect x="651" y="438" width="6" height="10" rx="2" fill="#15101d"/><rect x="659" y="354" width="6" height="10" rx="2" fill="#15101d"/><rect x="659" y="368" width="6" height="10" rx="2" fill="#15101d"/><rect x="659" y="382" width="6" height="10" rx="2" fill="#15101d"/><rect x="659" y="396" width="6" height="10" rx="2" fill="#15101d"/><rect x="659" y="410" width="6" height="10" rx="2" fill="#15101d"/><rect x="659" y="424" width="6" height="10" rx="2" fill="#15101d"/><rect x="659" y="438" width="6" height="10" rx="2" fill="#15101d"/><rect x="667" y="354" width="6" height="10" rx="2" fill="#15101d"/><rect x="667" y="368" width="6" height="10" rx="2" fill="#15101d"/><rect x="667" y="382" width="6" height="10" rx="2" fill="#15101d"/><rect x="667" y="396" width="6" height="10" rx="2" fill="#15101d"/><rect x="667" y="410" width="6" height="10" rx="2" fill="#15101d"/><rect x="667" y="424" width="6" height="10" rx="2" fill="#15101d"/><rect x="667" y="438" width="6" height="10" rx="2" fill="#15101d"/><rect x="675" y="354" width="6" height="10" rx="2" fill="#15101d"/><rect x="675" y="368" width="6" height="10" rx="2" fill="#15101d"/><rect x="675" y="382" width="6" height="10" rx="2" fill="#15101d"/><rect x="675" y="396" width="6" height="10" rx="2" fill="#15101d"/><rect x="675" y="410" width="6" height="10" rx="2" fill="#15101d"/><rect x="675" y="424" width="6" height="10" rx="2" fill="#15101d"/><rect x="675" y="438" width="6" height="10" rx="2" fill="#15101d"/><rect x="683" y="354" width="6" height="10" rx="2" fill="#15101d"/><rect x="683" y="368" width="6" height="10" rx="2" fill="#15101d"/><rect x="683" y="382" width="6" height="10" rx="2" fill="#15101d"/><rect x="683" y="396" width="6" height="10" rx="2" fill="#15101d"/><rect x="683" y="410" width="6" height="10" rx="2" fill="#15101d"/><rect x="683" y="424" width="6" height="10" rx="2" fill="#15101d"/><rect x="683" y="438" width="6" height="10" rx="2" fill="#15101d"/><rect x="691" y="354" width="6" height="10" rx="2" fill="#15101d"/><rect x="691" y="368" width="6" height="10" rx="2" fill="#15101d"/><rect x="691" y="382" width="6" height="10" rx="2" fill="#15101d"/><rect x="691" y="396" width="6" height="10" rx="2" fill="#15101d"/><rect x="691" y="410" width="6" height="10" rx="2" fill="#15101d"/><rect x="691" y="424" width="6" height="10" rx="2" fill="#15101d"/><rect x="691" y="438" width="6" height="10" rx="2" fill="#15101d"/><rect x="699" y="354" width="6" height="10" rx="2" fill="#15101d"/><rect x="699" y="368" width="6" height="10" rx="2" fill="#15101d"/><rect x="699" y="382" width="6" height="10" rx="2" fill="#15101d"/><rect x="699" y="396" width="6" height="10" rx="2" fill="#15101d"/><rect x="699" y="410" width="6" height="10" rx="2" fill="#15101d"/><rect x="699" y="424" width="6" height="10" rx="2" fill="#15101d"/><rect x="699" y="438" width="6" height="10" rx="2" fill="#15101d"/><rect x="707" y="354" width="6" height="10" rx="2" fill="#15101d"/><rect x="707" y="368" width="6" height="10" rx="2" fill="#15101d"/><rect x="707" y="382" width="6" height="10" rx="2" fill="#15101d"/><rect x="707" y="396" width="6" height="10" rx="2" fill="#15101d"/><rect x="707" y="410" width="6" height="10" rx="2" fill="#15101d"/><rect x="707" y="424" width="6" height="10" rx="2" fill="#15101d"/><rect x="707" y="438" width="6" height="10" rx="2" fill="#15101d"/><rect x="715" y="354" width="6" height="10" rx="2" fill="#15101d"/><rect x="715" y="368" width="6" height="10" rx="2" fill="#15101d"/><rect x="715" y="382" width="6" height="10" rx="2" fill="#15101d"/><rect x="715" y="396" width="6" height="10" rx="2" fill="#15101d"/><rect x="715" y="410" width="6" height="10" rx="2" fill="#15101d"/><rect x="715" y="424" width="6" height="10" rx="2" fill="#15101d"/><rect x="715" y="438" width="6" height="10" rx="2" fill="#15101d"/><rect x="723" y="354" width="6" height="10" rx="2" fill="#15101d"/><rect x="723" y="368" width="6" height="10" rx="2" fill="#15101d"/><rect x="723" y="382" width="6" height="10" rx="2" fill="#15101d"/><rect x="723" y="396" width="6" height="10" rx="2" fill="#15101d"/><rect x="723" y="410" width="6" height="10" rx="2" fill="#15101d"/><rect x="723" y="424" width="6" height="10" rx="2" fill="#15101d"/><rect x="723" y="438" width="6" height="10" rx="2" fill="#15101d"/><rect x="731" y="354" width="6" height="10" rx="2" fill="#15101d"/><rect x="731" y="368" width="6" height="10" rx="2" fill="#15101d"/><rect x="731" y="382" width="6" height="10" rx="2" fill="#15101d"/><rect x="731" y="396" width="6" height="10" rx="2" fill="#15101d"/><rect x="731" y="410" width="6" height="10" rx="2" fill="#15101d"/><rect x="731" y="424" width="6" height="10" rx="2" fill="#15101d"/><rect x="731" y="438" width="6" height="10" rx="2" fill="#15101d"/><rect x="739" y="354" width="6" height="10" rx="2" fill="#15101d"/><rect x="739" y="368" width="6" height="10" rx="2" fill="#15101d"/><rect x="739" y="382" width="6" height="10" rx="2" fill="#15101d"/><rect x="739" y="396" width="6" height="10" rx="2" fill="#15101d"/><rect x="739" y="410" width="6" height="10" rx="2" fill="#15101d"/><rect x="739" y="424" width="6" height="10" rx="2" fill="#15101d"/><rect x="739" y="438" width="6" height="10" rx="2" fill="#15101d"/><rect x="747" y="354" width="6" height="10" rx="2" fill="#15101d"/><rect x="747" y="368" width="6" height="10" rx="2" fill="#15101d"/><rect x="747" y="382" width="6" height="10" rx="2" fill="#15101d"/><rect x="747" y="396" width="6" height="10" rx="2" fill="#15101d"/><rect x="747" y="410" width="6" height="10" rx="2" fill="#15101d"/><rect x="747" y="424" width="6" height="10" rx="2" fill="#15101d"/><rect x="747" y="438" width="6" height="10" rx="2" fill="#15101d"/><rect x="755" y="354" width="6" height="10" rx="2" fill="#15101d"/><rect x="755" y="368" width="6" height="10" rx="2" fill="#15101d"/><rect x="755" y="382" width="6" height="10" rx="2" fill="#15101d"/><rect x="755" y="396" width="6" height="10" rx="2" fill="#15101d"/><rect x="755" y="410" width="6" height="10" rx="2" fill="#15101d"/><rect x="755" y="424" width="6" height="10" rx="2" fill="#15101d"/><rect x="755" y="438" width="6" height="10" rx="2" fill="#15101d"/><rect x="763" y="354" width="6" height="10" rx="2" fill="#15101d"/><rect x="763" y="368" width="6" height="10" rx="2" fill="#15101d"/><rect x="763" y="382" width="6" height="10" rx="2" fill="#15101d"/><rect x="763" y="396" width="6" height="10" rx="2" fill="#15101d"/><rect x="763" y="410" width="6" height="10" rx="2" fill="#15101d"/><rect x="763" y="424" width="6" height="10" rx="2" fill="#15101d"/><rect x="763" y="438" width="6" height="10" rx="2" fill="#15101d"/><rect x="771" y="354" width="6" height="10" rx="2" fill="#15101d"/><rect x="771" y="368" width="6" height="10" rx="2" fill="#15101d"/><rect x="771" y="382" width="6" height="10" rx="2" fill="#15101d"/><rect x="771" y="396" width="6" height="10" rx="2" fill="#15101d"/><rect x="771" y="410" width="6" height="10" rx="2" fill="#15101d"/><rect x="771" y="424" width="6" height="10" rx="2" fill="#15101d"/><rect x="771" y="438" width="6" height="10" rx="2" fill="#15101d"/><rect x="779" y="354" width="6" height="10" rx="2" fill="#15101d"/><rect x="779" y="368" width="6" height="10" rx="2" fill="#15101d"/><rect x="779" y="382" width="6" height="10" rx="2" fill="#15101d"/><rect x="779" y="396" width="6" height="10" rx="2" fill="#15101d"/><rect x="779" y="410" width="6" height="10" rx="2" fill="#15101d"/><rect x="779" y="424" width="6" height="10" rx="2" fill="#15101d"/><rect x="779" y="438" width="6" height="10" rx="2" fill="#15101d"/><rect x="787" y="354" width="6" height="10" rx="2" fill="#15101d"/><rect x="787" y="368" width="6" height="10" rx="2" fill="#15101d"/><rect x="787" y="382" width="6" height="10" rx="2" fill="#15101d"/><rect x="787" y="396" width="6" height="10" rx="2" fill="#15101d"/><rect x="787" y="410" width="6" height="10" rx="2" fill="#15101d"/><rect x="787" y="424" width="6" height="10" rx="2" fill="#15101d"/><rect x="787" y="438" width="6" height="10" rx="2" fill="#15101d"/><rect x="795" y="354" width="6" height="10" rx="2" fill="#15101d"/><rect x="795" y="368" width="6" height="10" rx="2" fill="#15101d"/><rect x="795" y="382" width="6" height="10" rx="2" fill="#15101d"/><rect x="795" y="396" width="6" height="10" rx="2" fill="#15101d"/><rect x="795" y="410" width="6" height="10" rx="2" fill="#15101d"/><rect x="795" y="424" width="6" height="10" rx="2" fill="#15101d"/><rect x="795" y="438" width="6" height="10" rx="2" fill="#15101d"/><rect x="803" y="354" width="6" height="10" rx="2" fill="#15101d"/><rect x="803" y="368" width="6" height="10" rx="2" fill="#15101d"/><rect x="803" y="382" width="6" height="10" rx="2" fill="#15101d"/><rect x="803" y="396" width="6" height="10" rx="2" fill="#15101d"/><rect x="803" y="410" width="6" height="10" rx="2" fill="#15101d"/><rect x="803" y="424" width="6" height="10" rx="2" fill="#15101d"/><rect x="803" y="438" width="6" height="10" rx="2" fill="#15101d"/><rect x="811" y="354" width="6" height="10" rx="2" fill="#15101d"/><rect x="811" y="368" width="6" height="10" rx="2" fill="#15101d"/><rect x="811" y="382" width="6" height="10" rx="2" fill="#15101d"/><rect x="811" y="396" width="6" height="10" rx="2" fill="#15101d"/><rect x="811" y="410" width="6" height="10" rx="2" fill="#15101d"/><rect x="811" y="424" width="6" height="10" rx="2" fill="#15101d"/><rect x="811" y="438" width="6" height="10" rx="2" fill="#15101d"/><rect x="819" y="354" width="6" height="10" rx="2" fill="#15101d"/><rect x="819" y="368" width="6" height="10" rx="2" fill="#15101d"/><rect x="819" y="382" width="6" height="10" rx="2" fill="#15101d"/><rect x="819" y="396" width="6" height="10" rx="2" fill="#15101d"/><rect x="819" y="410" width="6" height="10" rx="2" fill="#15101d"/><rect x="819" y="424" width="6" height="10" rx="2" fill="#15101d"/><rect x="819" y="438" width="6" height="10" rx="2" fill="#15101d"/><rect x="827" y="354" width="6" height="10" rx="2" fill="#15101d"/><rect x="827" y="368" width="6" height="10" rx="2" fill="#15101d"/><rect x="827" y="382" width="6" height="10" rx="2" fill="#15101d"/><rect x="827" y="396" width="6" height="10" rx="2" fill="#15101d"/><rect x="827" y="410" width="6" height="10" rx="2" fill="#15101d"/><rect x="827" y="424" width="6" height="10" rx="2" fill="#15101d"/><rect x="827" y="438" width="6" height="10" rx="2" fill="#15101d"/><rect x="835" y="354" width="6" height="10" rx="2" fill="#15101d"/><rect x="835" y="368" width="6" height="10" rx="2" fill="#15101d"/><rect x="835" y="382" width="6" height="10" rx="2" fill="#15101d"/><rect x="835" y="396" width="6" height="10" rx="2" fill="#15101d"/><rect x="835" y="410" width="6" height="10" rx="2" fill="#15101d"/><rect x="835" y="424" width="6" height="10" rx="2" fill="#15101d"/><rect x="835" y="438" width="6" height="10" rx="2" fill="#15101d"/><rect x="843" y="354" width="6" height="10" rx="2" fill="#15101d"/><rect x="843" y="368" width="6" height="10" rx="2" fill="#15101d"/><rect x="843" y="382" width="6" height="10" rx="2" fill="#15101d"/><rect x="843" y="396" width="6" height="10" rx="2" fill="#15101d"/><rect x="843" y="410" width="6" height="10" rx="2" fill="#15101d"/><rect x="843" y="424" width="6" height="10" rx="2" fill="#15101d"/><rect x="843" y="438" width="6" height="10" rx="2" fill="#15101d"/><rect x="851" y="354" width="6" height="10" rx="2" fill="#15101d"/><rect x="851" y="368" width="6" height="10" rx="2" fill="#15101d"/><rect x="851" y="382" width="6" height="10" rx="2" fill="#15101d"/><rect x="851" y="396" width="6" height="10" rx="2" fill="#15101d"/><rect x="851" y="410" width="6" height="10" rx="2" fill="#15101d"/><rect x="851" y="424" width="6" height="10" rx="2" fill="#15101d"/><rect x="851" y="438" width="6" height="10" rx="2" fill="#15101d"/><rect x="859" y="354" width="6" height="10" rx="2" fill="#15101d"/><rect x="859" y="368" width="6" height="10" rx="2" fill="#15101d"/><rect x="859" y="382" width="6" height="10" rx="2" fill="#15101d"/><rect x="859" y="396" width="6" height="10" rx="2" fill="#15101d"/><rect x="859" y="410" width="6" height="10" rx="2" fill="#15101d"/><rect x="859" y="424" width="6" height="10" rx="2" fill="#15101d"/><rect x="859" y="438" width="6" height="10" rx="2" fill="#15101d"/><rect x="867" y="354" width="6" height="10" rx="2" fill="#15101d"/><rect x="867" y="368" width="6" height="10" rx="2" fill="#15101d"/><rect x="867" y="382" width="6" height="10" rx="2" fill="#15101d"/><rect x="867" y="396" width="6" height="10" rx="2" fill="#15101d"/><rect x="867" y="410" width="6" height="10" rx="2" fill="#15101d"/><rect x="867" y="424" width="6" height="10" rx="2" fill="#15101d"/><rect x="867" y="438" width="6" height="10" rx="2" fill="#15101d"/><rect x="875" y="354" width="6" height="10" rx="2" fill="#15101d"/><rect x="875" y="368" width="6" height="10" rx="2" fill="#15101d"/><rect x="875" y="382" width="6" height="10" rx="2" fill="#15101d"/><rect x="875" y="396" width="6" height="10" rx="2" fill="#15101d"/><rect x="875" y="410" width="6" height="10" rx="2" fill="#15101d"/><rect x="875" y="424" width="6" height="10" rx="2" fill="#15101d"/><rect x="875" y="438" width="6" height="10" rx="2" fill="#15101d"/><rect x="883" y="354" width="6" height="10" rx="2" fill="#15101d"/><rect x="883" y="368" width="6" height="10" rx="2" fill="#15101d"/><rect x="883" y="382" width="6" height="10" rx="2" fill="#15101d"/><rect x="883" y="396" width="6" height="10" rx="2" fill="#15101d"/><rect x="883" y="410" width="6" height="10" rx="2" fill="#15101d"/><rect x="883" y="424" width="6" height="10" rx="2" fill="#15101d"/><rect x="883" y="438" width="6" height="10" rx="2" fill="#15101d"/><rect x="891" y="354" width="6" height="10" rx="2" fill="#15101d"/><rect x="891" y="368" width="6" height="10" rx="2" fill="#15101d"/><rect x="891" y="382" width="6" height="10" rx="2" fill="#15101d"/><rect x="891" y="396" width="6" height="10" rx="2" fill="#15101d"/><rect x="891" y="410" width="6" height="10" rx="2" fill="#15101d"/><rect x="891" y="424" width="6" height="10" rx="2" fill="#15101d"/><rect x="891" y="438" width="6" height="10" rx="2" fill="#15101d"/><rect x="899" y="354" width="6" height="10" rx="2" fill="#15101d"/><rect x="899" y="368" width="6" height="10" rx="2" fill="#15101d"/><rect x="899" y="382" width="6" height="10" rx="2" fill="#15101d"/><rect x="899" y="396" width="6" height="10" rx="2" fill="#15101d"/><rect x="899" y="410" width="6" height="10" rx="2" fill="#15101d"/><rect x="899" y="424" width="6" height="10" rx="2" fill="#15101d"/><rect x="899" y="438" width="6" height="10" rx="2" fill="#15101d"/><rect x="907" y="354" width="6" height="10" rx="2" fill="#15101d"/><rect x="907" y="368" width="6" height="10" rx="2" fill="#15101d"/><rect x="907" y="382" width="6" height="10" rx="2" fill="#15101d"/><rect x="907" y="396" width="6" height="10" rx="2" fill="#15101d"/><rect x="907" y="410" width="6" height="10" rx="2" fill="#15101d"/><rect x="907" y="424" width="6" height="10" rx="2" fill="#15101d"/><rect x="907" y="438" width="6" height="10" rx="2" fill="#15101d"/><rect x="915" y="354" width="6" height="10" rx="2" fill="#15101d"/><rect x="915" y="368" width="6" height="10" rx="2" fill="#15101d"/><rect x="915" y="382" width="6" height="10" rx="2" fill="#15101d"/><rect x="915" y="396" width="6" height="10" rx="2" fill="#15101d"/><rect x="915" y="410" width="6" height="10" rx="2" fill="#15101d"/><rect x="915" y="424" width="6" height="10" rx="2" fill="#15101d"/><rect x="915" y="438" width="6" height="10" rx="2" fill="#15101d"/><rect x="923" y="354" width="6" height="10" rx="2" fill="#15101d"/><rect x="923" y="368" width="6" height="10" rx="2" fill="#15101d"/><rect x="923" y="382" width="6" height="10" rx="2" fill="#15101d"/><rect x="923" y="396" width="6" height="10" rx="2" fill="#15101d"/><rect x="923" y="410" width="6" height="10" rx="2" fill="#15101d"/><rect x="923" y="424" width="6" height="10" rx="2" fill="#15101d"/><rect x="923" y="438" width="6" height="10" rx="2" fill="#15101d"/><rect x="931" y="354" width="6" height="10" rx="2" fill="#15101d"/><rect x="931" y="368" width="6" height="10" rx="2" fill="#15101d"/><rect x="931" y="382" width="6" height="10" rx="2" fill="#15101d"/><rect x="931" y="396" width="6" height="10" rx="2" fill="#15101d"/><rect x="931" y="410" width="6" height="10" rx="2" fill="#15101d"/><rect x="931" y="424" width="6" height="10" rx="2" fill="#15101d"/><rect x="931" y="438" width="6" height="10" rx="2" fill="#15101d"/><rect x="939" y="354" width="6" height="10" rx="2" fill="#15101d"/><rect x="939" y="368" width="6" height="10" rx="2" fill="#15101d"/><rect x="939" y="382" width="6" height="10" rx="2" fill="#15101d"/><rect x="939" y="396" width="6" height="10" rx="2" fill="#15101d"/><rect x="939" y="410" width="6" height="10" rx="2" fill="#15101d"/><rect x="939" y="424" width="6" height="10" rx="2" fill="#15101d"/><rect x="939" y="438" width="6" height="10" rx="2" fill="#15101d"/><rect x="947" y="354" width="6" height="10" rx="2" fill="#15101d"/><rect x="947" y="368" width="6" height="10" rx="2" fill="#15101d"/><rect x="947" y="382" width="6" height="10" rx="2" fill="#15101d"/><rect x="947" y="396" width="6" height="10" rx="2" fill="#15101d"/><rect x="947" y="410" width="6" height="10" rx="2" fill="#15101d"/><rect x="947" y="424" width="6" height="10" rx="2" fill="#15101d"/><rect x="947" y="438" width="6" height="10" rx="2" fill="#15101d"/><rect x="955" y="354" width="6" height="10" rx="2" fill="#15101d"/><rect x="955" y="368" width="6" height="10" rx="2" fill="#15101d"/><rect x="955" y="382" width="6" height="10" rx="2" fill="#15101d"/><rect x="955" y="396" width="6" height="10" rx="2" fill="#15101d"/><rect x="955" y="410" width="6" height="10" rx="2" fill="#15101d"/><rect x="955" y="424" width="6" height="10" rx="2" fill="#15101d"/><rect x="955" y="438" width="6" height="10" rx="2" fill="#15101d"/><rect x="963" y="354" width="6" height="10" rx="2" fill="#15101d"/><rect x="963" y="368" width="6" height="10" rx="2" fill="#15101d"/><rect x="963" y="382" width="6" height="10" rx="2" fill="#15101d"/><rect x="963" y="396" width="6" height="10" rx="2" fill="#15101d"/><rect x="963" y="410" width="6" height="10" rx="2" fill="#15101d"/><rect x="963" y="424" width="6" height="10" rx="2" fill="#15101d"/><rect x="963" y="438" width="6" height="10" rx="2" fill="#15101d"/><rect x="971" y="354" width="6" height="10" rx="2" fill="#15101d"/><rect x="971" y="368" width="6" height="10" rx="2" fill="#15101d"/><rect x="971" y="382" width="6" height="10" rx="2" fill="#15101d"/><rect x="971" y="396" width="6" height="10" rx="2" fill="#15101d"/><rect x="971" y="410" width="6" height="10" rx="2" fill="#15101d"/><rect x="971" y="424" width="6" height="10" rx="2" fill="#15101d"/><rect x="971" y="438" width="6" height="10" rx="2" fill="#15101d"/><rect x="979" y="354" width="6" height="10" rx="2" fill="#15101d"/><rect x="979" y="368" width="6" height="10" rx="2" fill="#15101d"/><rect x="979" y="382" width="6" height="10" rx="2" fill="#15101d"/><rect x="979" y="396" width="6" height="10" rx="2" fill="#15101d"/><rect x="979" y="410" width="6" height="10" rx="2" fill="#15101d"/><rect x="979" y="424" width="6" height="10" rx="2" fill="#15101d"/><rect x="979" y="438" width="6" height="10" rx="2" fill="#15101d"/><rect x="987" y="354" width="6" height="10" rx="2" fill="#15101d"/><rect x="987" y="368" width="6" height="10" rx="2" fill="#15101d"/><rect x="987" y="382" width="6" height="10" rx="2" fill="#15101d"/><rect x="987" y="396" width="6" height="10" rx="2" fill="#15101d"/><rect x="987" y="410" width="6" height="10" rx="2" fill="#15101d"/><rect x="987" y="424" width="6" height="10" rx="2" fill="#15101d"/><rect x="987" y="438" width="6" height="10" rx="2" fill="#15101d"/><rect x="995" y="354" width="6" height="10" rx="2" fill="#15101d"/><rect x="995" y="368" width="6" height="10" rx="2" fill="#15101d"/><rect x="995" y="382" width="6" height="10" rx="2" fill="#15101d"/><rect x="995" y="396" width="6" height="10" rx="2" fill="#15101d"/><rect x="995" y="410" width="6" height="10" rx="2" fill="#15101d"/><rect x="995" y="424" width="6" height="10" rx="2" fill="#15101d"/><rect x="995" y="438" width="6" height="10" rx="2" fill="#15101d"/><rect x="1003" y="354" width="6" height="10" rx="2" fill="#15101d"/><rect x="1003" y="368" width="6" height="10" rx="2" fill="#15101d"/><rect x="1003" y="382" width="6" height="10" rx="2" fill="#15101d"/><rect x="1003" y="396" width="6" height="10" rx="2" fill="#15101d"/><rect x="1003" y="410" width="6" height="10" rx="2" fill="#15101d"/><rect x="1003" y="424" width="6" height="10" rx="2" fill="#15101d"/><rect x="1003" y="438" width="6" height="10" rx="2" fill="#15101d"/><rect x="1011" y="354" width="6" height="10" rx="2" fill="#15101d"/><rect x="1011" y="368" width="6" height="10" rx="2" fill="#15101d"/><rect x="1011" y="382" width="6" height="10" rx="2" fill="#15101d"/><rect x="1011" y="396" width="6" height="10" rx="2" fill="#15101d"/><rect x="1011" y="410" width="6" height="10" rx="2" fill="#15101d"/><rect x="1011" y="424" width="6" height="10" rx="2" fill="#15101d"/><rect x="1011" y="438" width="6" height="10" rx="2" fill="#15101d"/><rect x="1019" y="354" width="6" height="10" rx="2" fill="#15101d"/><rect x="1019" y="368" width="6" height="10" rx="2" fill="#15101d"/><rect x="1019" y="382" width="6" height="10" rx="2" fill="#15101d"/><rect x="1019" y="396" width="6" height="10" rx="2" fill="#15101d"/><rect x="1019" y="410" width="6" height="10" rx="2" fill="#15101d"/><rect x="1019" y="424" width="6" height="10" rx="2" fill="#15101d"/><rect x="1019" y="438" width="6" height="10" rx="2" fill="#15101d"/><rect x="1027" y="354" width="6" height="10" rx="2" fill="#15101d"/><rect x="1027" y="368" width="6" height="10" rx="2" fill="#15101d"/><rect x="1027" y="382" width="6" height="10" rx="2" fill="#15101d"/><rect x="1027" y="396" width="6" height="10" rx="2" fill="#15101d"/><rect x="1027" y="410" width="6" height="10" rx="2" fill="#15101d"/><rect x="1027" y="424" width="6" height="10" rx="2" fill="#15101d"/><rect x="1027" y="438" width="6" height="10" rx="2" fill="#15101d"/><rect x="1035" y="354" width="6" height="10" rx="2" fill="#15101d"/><rect x="1035" y="368" width="6" height="10" rx="2" fill="#15101d"/><rect x="1035" y="382" width="6" height="10" rx="2" fill="#15101d"/><rect x="1035" y="396" width="6" height="10" rx="2" fill="#15101d"/><rect x="1035" y="410" width="6" height="10" rx="2" fill="#15101d"/><rect x="1035" y="424" width="6" height="10" rx="2" fill="#15101d"/><rect x="1035" y="438" width="6" height="10" rx="2" fill="#15101d"/><rect x="1043" y="354" width="6" height="10" rx="2" fill="#15101d"/><rect x="1043" y="368" width="6" height="10" rx="2" fill="#15101d"/><rect x="1043" y="382" width="6" height="10" rx="2" fill="#15101d"/><rect x="1043" y="396" width="6" height="10" rx="2" fill="#15101d"/><rect x="1043" y="410" width="6" height="10" rx="2" fill="#15101d"/><rect x="1043" y="424" width="6" height="10" rx="2" fill="#15101d"/><rect x="1043" y="438" width="6" height="10" rx="2" fill="#15101d"/><rect x="1051" y="354" width="6" height="10" rx="2" fill="#15101d"/><rect x="1051" y="368" width="6" height="10" rx="2" fill="#15101d"/><rect x="1051" y="382" width="6" height="10" rx="2" fill="#15101d"/><rect x="1051" y="396" width="6" height="10" rx="2" fill="#15101d"/><rect x="1051" y="410" width="6" height="10" rx="2" fill="#15101d"/><rect x="1051" y="424" width="6" height="10" rx="2" fill="#15101d"/><rect x="1051" y="438" width="6" height="10" rx="2" fill="#15101d"/><rect x="1059" y="354" width="6" height="10" rx="2" fill="#15101d"/><rect x="1059" y="368" width="6" height="10" rx="2" fill="#15101d"/><rect x="1059" y="382" width="6" height="10" rx="2" fill="#15101d"/><rect x="1059" y="396" width="6" height="10" rx="2" fill="#15101d"/><rect x="1059" y="410" width="6" height="10" rx="2" fill="#15101d"/><rect x="1059" y="424" width="6" height="10" rx="2" fill="#15101d"/><rect x="1059" y="438" width="6" height="10" rx="2" fill="#15101d"/></g>
  <g transform="translate(626 478)">
    <rect width="420" height="78" rx="7" fill="#0c0911" stroke="#24172f"/>
    <text x="18" y="26" class="label">LAST PUBLIC TRANSMISSION</text>
    <text x="18" y="51" class="lang">duartess7</text>
    <text x="402" y="26" text-anchor="end" class="label">RECENT SIGNAL</text>
    <text x="402" y="51" text-anchor="end" class="lang">11 pushes / 2 active days</text>
  </g>
  <path d="M54 579H1046" stroke="#291b39"/>
  <text x="54" y="600" class="detail">github telemetry / generated automatically / source: public GitHub API</text>
  <text x="1046" y="600" text-anchor="end" class="kicker">MEMENTO MORI</text>
</svg>
